# Blender v2.77 (sub 0) OBJ File: ''
# www.blender.org
mtllib starshard.mtl
o Cube
v 0.026380 -0.325481 -0.597329
v 0.026380 -1.739695 -0.136368
v -0.552806 -0.739695 0.189581
v -0.552806 0.674519 -0.271380
v 0.605566 0.674518 -0.271380
v 0.658626 -0.559862 0.018522
v 0.026380 0.260305 0.515530
v 0.026380 1.674518 0.054569
vn -0.7306 -0.2116 -0.6491
vn 0.7368 0.1980 0.6465
vn 0.6459 -0.1962 -0.7378
vn 0.1774 -0.3050 0.9357
vn -0.7306 0.2116 0.6491
vn 0.0000 0.3099 -0.9508
usemtl Material
s off
f 1//1 2//1 3//1 4//1
f 5//2 8//2 7//2 6//2
f 1//3 5//3 6//3 2//3
f 2//4 6//4 7//4 3//4
f 3//5 7//5 8//5 4//5
f 5//6 1//6 4//6 8//6
